<svg width="60" height="60" viewBox="0 0 60 60" fill="none" xmlns="http://www.w3.org/2000/svg">
<path fill-rule="evenodd" clip-rule="evenodd" d="M30,44.527186l-3.569401-18.45954-16.273542,1.781181l1.862144-3.07659v-5.505476l9.796511-6.881847q2.428887-4.371996,2.347924-4.371996c-.080963,0-6.234143-.242889-6.234143-.161926q0,.080963-14.735247,8.339178L2.222691,42.422149L29.999998,57.157396" transform="translate(0-2.499072)" fill="white"/>
<path fill-rule="evenodd" clip-rule="evenodd" d="M30,44.527186l-3.569401-18.45954-16.273542,1.781181l1.862144-3.07659v-5.505476l9.796511-6.881847q2.428887-4.371996,2.347924-4.371996c-.080963,0-6.234143-.242889-6.234143-.161926q0,.080963-14.735247,8.339178L2.222691,42.422149L29.999998,57.157396" transform="matrix(-1 0 0 1 60-2.499072)" fill="white"/>
</svg>